<svg width="500" height="500" viewBox="0 0 500 500" fill="none" xmlns="http://www.w3.org/2000/svg">
<path d="M473.243 22.4609C478.907 26.5625 481.25 32.0312 480.274 38.8672L414.454 433.984C413.672 439.062 410.743 442.773 406.25 445.508C403.907 446.875 401.172 447.656 398.243 447.656C396.29 447.656 394.336 447.266 391.993 446.289L275.586 398.633L213.282 474.609C210.157 478.516 206.055 480.469 200.586 480.469C198.438 480.469 196.485 480.078 194.922 479.492C191.602 478.32 189.063 476.367 187.11 473.437C185.157 470.703 184.18 467.383 184.18 464.063V374.219L406.446 101.758L131.446 339.844L29.8833 298.242C23.438 295.898 20.1177 291.211 19.5317 284.18C19.1411 277.344 21.8755 272.266 27.7349 268.945L455.86 21.875C458.399 20.3125 461.133 19.5312 464.063 19.5312C467.383 19.5312 470.508 20.5078 473.243 22.4609Z" fill="#1E3A8A"/>
</svg>
