<svg width="540" height="540" viewBox="0 0 540 540" fill="none" xmlns="http://www.w3.org/2000/svg">
<rect x="10" y="10" width="520" height="520" rx="110" stroke="#F8FAFC" stroke-width="20"/>
<path d="M274.613 170.515C186.113 194.678 111.844 215.432 109.621 216.321C97.0202 222.251 91.5353 236.927 97.465 249.379C99.3921 253.381 103.691 258.273 129.04 283.622L158.392 313.122L158.688 353.889L158.985 394.655L161.209 399.102C165.359 407.552 171.734 409.924 180.776 406.662C184.927 405.032 187.002 403.401 201.827 388.725L218.133 372.567L236.07 390.356C255.638 409.627 258.158 411.554 267.645 413.185C277.133 414.667 287.51 411.406 294.477 404.439C297.442 401.474 310.339 378.645 369.932 271.467C409.512 200.311 442.421 141.163 443.163 140.125C445.238 137.012 445.683 133.899 444.2 131.083C442.866 128.562 439.308 126.191 436.937 126.339C436.047 126.487 363.113 146.351 274.613 170.515ZM386.535 157.321C385.052 158.655 169.065 298.298 167.731 298.595C166.1 299.039 110.807 243.301 109.472 239.891C108.138 236.482 109.324 233.962 113.327 231.738C115.699 230.552 382.977 157.025 386.09 156.728C386.831 156.58 386.979 156.876 386.535 157.321ZM413.218 160.731C404.472 177.037 284.397 392.283 283.359 393.617C280.542 397.027 278.171 398.509 274.613 398.954C267.497 399.695 268.387 400.436 222.284 354.482C198.862 330.911 179.59 311.343 179.59 311.047C179.739 310.602 413.07 159.248 413.959 158.952C414.107 158.952 413.663 159.693 413.218 160.731ZM191.005 377.014C182.407 385.612 175.143 392.579 174.698 392.283C174.402 391.987 174.105 377.607 174.105 360.263V328.688L190.412 344.994L206.718 361.301L191.005 377.014Z" fill="#F8FAFC"/>
</svg>
