<svg width="540" height="540" viewBox="0 0 540 540" fill="none" xmlns="http://www.w3.org/2000/svg">
<rect x="10" y="10" width="520" height="520" rx="110" stroke="#F8FAFC" stroke-width="20"/>
<path d="M346.549 160.699H193.498C187.418 160.699 182.524 165.593 182.524 171.674C182.524 177.754 187.418 182.648 193.498 182.648H346.697C352.778 182.648 357.672 177.754 357.672 171.674C357.524 165.593 352.629 160.699 346.549 160.699ZM346.549 225.953H193.498C187.418 225.953 182.524 230.847 182.524 236.928C182.524 243.008 187.418 247.903 193.498 247.903H346.697C352.778 247.903 357.672 243.008 357.672 236.928C357.524 230.847 352.629 225.953 346.549 225.953ZM346.549 291.949H193.498C187.418 291.949 182.524 296.843 182.524 302.924C182.524 309.004 187.418 313.898 193.498 313.898H346.697C352.778 313.898 357.672 309.004 357.672 302.924C357.524 296.843 352.629 291.949 346.549 291.949ZM401.273 423.496L357.523 390.275L313.773 425.127L270.023 390.275L226.273 425.127L182.524 390.275L138.774 423.792V138.75C138.774 126.737 148.562 116.801 160.723 116.801H379.473C391.485 116.801 401.422 126.589 401.422 138.75L401.273 423.496ZM379.473 95H160.723C136.549 95 116.973 114.576 116.973 138.75V445H137.439L182.524 412.225L226.273 445L270.023 412.225L313.773 445L357.523 412.225L402.757 445H423.223V138.75C423.223 114.576 403.498 95 379.473 95Z" fill="#F8FAFC"/>
</svg>
